<svg xmlns="http://www.w3.org/2000/svg" width="393.782" height="567.5" viewBox="0 0 393.782 567.5"><g transform="translate(-75.574 573.701)"><path d="M261.6-540.4l-10.8,33.5,6.1,37.6c3.4,20.7,6,37.7,5.8,37.9s-5.5-16.5-11.7-37.1c-7.3-23.9-11.9-37.5-12.7-37.5-3.3,0-21.8,6.7-30.8,11.2-42.5,21-72.7,57-83.9,99.9-3.3,12.6-4.6,25.3-4.6,46.1,0,9.5-.5,28.5-1,42.3-3.3,82.2-14,130.4-33.2,149.8a67.259,67.259,0,0,1-8,7.3c-1.6.9-1.6,1.4-.2,6.6,3.8,14.9,10.6,25.1,26.7,40.2a302.776,302.776,0,0,0,44.2,35.1C180.8-45.4,223.6-24,263.1-9.7l9.6,3.5,9.4-3.3c51.5-17.9,104.6-45.9,136.4-71.6,27.7-22.4,43.1-40.4,48.3-56.4,3.6-10.9,3.6-10.7-1.3-13.6-14.7-9-26.2-37.9-32.4-81.4-4.2-29.6-7.1-76.1-7.1-116,0-34.3-3.5-51.3-15.1-75-14.7-29.7-37.9-53.3-68.3-69.1-10-5.2-31.7-13.4-35.5-13.4-1.3,0-4,7.7-13.1,37.5-6.2,20.6-11.5,37.3-11.7,37.1s2.4-17.2,5.8-37.9l6.2-37.6-10.8-33.3c-5.9-18.3-10.8-33.4-10.9-33.5S267.5-558.8,261.6-540.4ZM208-293c24.5,10.6,44.6,19.4,44.8,19.5s-2.5,3.9-5.9,8.4c-13.1,17.4-29.1,26.3-44.9,24.8-17.2-1.5-29.2-17.5-36.9-48.9-3.9-15.8-5-24.4-3-23.6C162.9-312.5,183.5-303.6,208-293Zm175.6-14.3c-.4,3.2-2,11.3-3.7,18.1-9.2,37.4-24.8,53.2-47.9,48.3-12.8-2.8-27.1-13.4-36.2-27.1-3.2-4.8-3.4-5.6-2-6.3,8.5-3.9,88.9-38.6,89.6-38.6C383.9-313,384-310.4,383.6-307.3Z" fill="#ef4444"/></g></svg>